<?xml version="1.0" encoding="utf-8"?>
<svg id="master-artboard" viewBox="0 0 500.6121520996094 366.5000915527344" version="1.1" xmlns="http://www.w3.org/2000/svg" x="0px" y="0px" style="enable-background:new 0 0 1400 980;" width="500.6121520996094px" height="366.5000915527344px"><defs><path id="text-path-0" d="M 542.329833984375 563.0910034179688 A 100 24 0 0 1 856.092529296875 563.0910034179688 A 100 24 0 0 1 542.329833984375 563.0910034179688 Z" style="fill: none; stroke: red; stroke-width: 2;"/><style id="ee-google-fonts">@import url(https://fonts.googleapis.com/css?family=Acme:400);</style></defs><rect id="ee-background" x="0" y="0" width="500.6121520996094" height="366.5000915527344" style="fill: white; fill-opacity: 0; pointer-events: none;"/><g transform="matrix(3.810265064239502, 0, 0, 3.810265064239502, -115.43687438964844, -1392.1145536899567)"><path class="st1" d="M145.4,417.1v-14.6c0-13.3-10.8-24-24-24c-0.4,0-0.7,0-1.1,0.1c-4.8-7.7-13.3-12.9-23-12.9&#10;&#9;&#9;c-14.2,0-25.8,10.9-26.9,24.8c-0.8-0.1-1.6-0.2-2.5-0.2c-10.9,0-19.8,8.9-19.8,19.8v7c-9.1,2.9-15.6,11.3-15.6,21.3&#10;&#9;&#9;c0,12.4,10,22.4,22.4,22.4h83.8c12.4,0,22.4-10,22.4-22.4C161,428.4,154.4,420,145.4,417.1z" style="fill: rgb(110, 228, 255); opacity: 1;" transform="matrix(1, 0, 0, 1, 0, 0)"/></g><path d="M 580.8526000976562 539.0025634765625 C 576.99609375 540.0389404296875 573.3104858398438 539.296630859375 569.7958374023438 536.7756958007812 C 566.2876586914062 534.2530517578125 563.9028930664062 530.64501953125 562.6416625976562 525.9515380859375 C 561.10009765625 520.2150268554688 561.3919067382812 514.955810546875 563.5170288085938 510.17376708984375 C 565.6421508789062 505.3917541503906 569.0159912109375 502.379638671875 573.638671875 501.13739013671875 C 575.4478149414062 500.6512145996094 577.1734619140625 500.38079833984375 578.8154907226562 500.32611083984375 C 580.4657592773438 500.276123046875 581.6702270507812 500.3528137207031 582.4290161132812 500.55621337890625 L 583.5311889648438 500.8813171386719 L 581.9236450195312 509.0793762207031 C 580.9384765625 508.5986022949219 579.6337890625 508.251953125 578.0097045898438 508.0395202636719 C 576.3902587890625 507.8188781738281 574.9882202148438 507.86773681640625 573.8035888671875 508.18609619140625 C 571.4021606445312 508.8314208984375 569.7467651367188 510.33935546875 568.8374633789062 512.7098999023438 C 567.9281616210938 515.0804443359375 567.9666137695312 518.1005859375 568.9528198242188 521.7703857421875 C 569.937255859375 525.4337768554688 571.4920654296875 528.23974609375 573.6172485351562 530.1882934570312 C 575.7471313476562 532.1287231445312 578.0964965820312 532.7537231445312 580.6653442382812 532.0634155273438 C 582.3328247070312 531.6152954101562 583.7056884765625 530.687255859375 584.7838745117188 529.2791748046875 C 585.862060546875 527.8711547851562 586.4444580078125 526.2235717773438 586.531005859375 524.33642578125 L 591.5322875976562 525.6846923828125 C 591.2080688476562 529.0508422851562 590.0955200195312 531.910888671875 588.1946411132812 534.2648315429688 C 586.293701171875 536.6188354492188 583.8463745117188 538.1980590820312 580.8526000976562 539.0025634765625 ZM 603.4779052734375 533.1546020507812 L 602.07568359375 520.0936279296875 L 597.8404541015625 497.4165344238281 L 605.2064208984375 494.8879089355469 L 608.1158447265625 518.2094116210938 L 609.8546142578125 526.7933349609375 L 620.6538696289062 524.2090454101562 L 621.0308837890625 530.3857421875 L 603.4779052734375 533.1546020507812 ZM 643.07275390625 490.00128173828125 C 647.3043823242188 489.64410400390625 650.92822265625 490.9639587402344 653.9443359375 493.96087646484375 C 656.96044921875 496.95782470703125 658.6790161132812 500.95074462890625 659.1001586914062 505.9396667480469 C 659.6328735351562 512.2505493164062 658.4318237304688 517.4801025390625 655.4970092773438 521.6283569335938 C 652.5621948242188 525.7765502929688 648.4375610351562 528.074951171875 643.1231689453125 528.5235595703125 C 638.997802734375 528.8717651367188 635.3969116210938 527.5065307617188 632.3203735351562 524.427734375 C 629.2432250976562 521.34228515625 627.4989013671875 517.361572265625 627.0873413085938 512.4855346679688 C 626.5725708007812 506.3872375488281 627.8160400390625 501.224365234375 630.8177490234375 496.99688720703125 C 633.8194580078125 492.7694091796875 637.9044799804688 490.43756103515625 643.07275390625 490.00128173828125 M 652.0402221679688 509.56634521484375 C 651.2742309570312 500.491943359375 647.9151611328125 496.2059631347656 641.9629516601562 496.7084045410156 C 639.232666015625 496.9388732910156 637.1724853515625 498.133056640625 635.7824096679688 500.29095458984375 C 634.392333984375 502.4488830566406 633.8674926757812 505.5439758300781 634.2078247070312 509.5763244628906 C 634.5487670898438 513.6152954101562 635.662841796875 516.866455078125 637.550048828125 519.3297729492188 C 639.443359375 521.785888671875 641.7618408203125 522.8981323242188 644.50537109375 522.6665649414062 C 647.2489624023438 522.4349365234375 649.2716674804688 521.1536254882812 650.5735473632812 518.822509765625 C 651.8754272460938 516.4913940429688 652.3643188476562 513.406005859375 652.0402221679688 509.56634521484375 ZM 683.373291015625 526.2257080078125 C 680.1337890625 526.28271484375 677.39013671875 525.3408813476562 675.1422729492188 523.400146484375 C 672.8944091796875 521.4594116210938 671.744873046875 519.0325927734375 671.6935424804688 516.1197509765625 L 670.6878051757812 489.67333984375 L 678.4428100585938 488.18658447265625 L 677.9893188476562 511.8482360839844 C 678.03369140625 514.3678588867188 678.6548461914062 516.320556640625 679.852783203125 517.7063598632812 C 681.0438842773438 519.0855712890625 682.8659057617188 519.7536010742188 685.3189086914062 519.7103881835938 C 687.7651977539062 519.6673583984375 689.5161743164062 518.9530639648438 690.5719604492188 517.567626953125 C 691.6277465820312 516.18212890625 692.1261596679688 513.8163452148438 692.0672607421875 510.4701843261719 L 691.0446166992188 489.3149108886719 L 698.5797119140625 487.8320007324219 L 698.4080810546875 511.5987243652344 C 698.4828491210938 515.8447265625 697.12060546875 519.325927734375 694.3213500976562 522.0422973632812 C 691.5219116210938 524.7520141601562 687.87255859375 526.146484375 683.373291015625 526.2257080078125 ZM 722.9938354492188 526.4631958007812 C 720.4430541992188 526.3486938476562 716.7655639648438 525.9867553710938 711.96142578125 525.3773803710938 L 713.1990966796875 512.2997436523438 L 713.6322021484375 488.15484619140625 L 728.0377197265625 488.8014831542969 C 732.892822265625 489.0194091796875 736.620361328125 490.6448669433594 739.2202758789062 493.6778259277344 C 741.8265991210938 496.7177429199219 743.0136108398438 500.8251037597656 742.7813110351562 505.9999084472656 C 742.4874877929688 512.546630859375 740.5629272460938 517.6588134765625 737.0078125 521.33642578125 C 733.45263671875 525.0140380859375 728.7813110351562 526.7229614257812 722.9938354492188 526.4631958007812 M 725.8282470703125 494.5381774902344 C 723.457275390625 494.4317321777344 721.7847290039062 494.3766784667969 720.8106079101562 494.37298583984375 L 719.4940185546875 511.6613464355469 L 719.4812622070312 520.4196166992188 C 722.495361328125 520.7684326171875 724.5218505859375 520.9661865234375 725.560791015625 521.0128173828125 C 728.4046020507812 521.1404418945312 730.6939086914062 520.092041015625 732.4287719726562 517.8676147460938 C 734.1705322265625 515.6367797851562 735.1399536132812 512.3269653320312 735.3369140625 507.93804931640625 C 735.533935546875 503.54913330078125 734.8807983398438 500.2598571777344 733.37744140625 498.07025146484375 C 731.8744506835938 495.87396240234375 729.3580322265625 494.69659423828125 725.8282470703125 494.5381774902344 ZM 764.1439208984375 491.0954895019531 L 761.0700073242188 514.3958740234375 L 760.3316040039062 528.4315185546875 L 752.8085327148438 527.6856079101562 L 754.7498168945312 514.6937866210938 L 756.3781127929688 491.6821594238281 L 764.1439208984375 491.0954895019531 ZM 797.517333984375 501.6625671386719 L 786.151611328125 499.9105224609375 L 784.3224487304688 509.67584228515625 L 794.5121459960938 511.24658203125 L 793.0560302734375 516.81982421875 L 783.2913818359375 515.3145751953125 L 782.9608764648438 517.0646362304688 L 781.4642944335938 531.039794921875 L 773.9925537109375 529.8880004882812 L 776.6337890625 517.0202026367188 L 779.6691284179688 493.06298828125 L 798.9909057617188 496.04144287109375 L 797.517333984375 501.6625671386719 ZM 818.7338256835938 516.6244506835938 L 819.3619384765625 516.7916870117188 L 825.115966796875 510.7281494140625 L 831.3223266601562 503.16033935546875 L 837.43115234375 505.79083251953125 L 830.317138671875 513.2307739257812 L 820.0056762695312 524.6727294921875 L 817.0042114257812 538.2371826171875 L 809.6987915039062 536.2918090820312 L 813.5554809570312 523.9071655273438 L 810.5406494140625 508.8027648925781 L 807.9570922851562 498.33551025390625 L 815.6678466796875 498.9917297363281 L 816.9496459960938 507.8188171386719 L 818.7338256835938 516.6244506835938 Z" transform="matrix(1, 0, 0, 1, -439.37530517578125, -304.6314697265625)" style="fill: rgb(17, 36, 51); white-space: pre; color: rgb(17, 36, 51); fill-opacity: 0.52;"/></svg>